# xmcd
#
# Track frame offsets:
#	150
#	18170
#	39015
#	56607
#	73770
#	91737
#	109030
#	126705
#	142542
#	160350
#	177615
#	195900
#	212885
#	230847
#
# Disc length: 3362 seconds
#
# Revision: 6
# Processed by: cddbd v1.5.2PL0 Copyright (c) Steve Scherf et al.
# Submitted via: EasyCDDAExtractor 15.3.0.1
#
DISCID=be0d200e
DTITLE=Thalia - Con Banda - Grandes Exitos
DYEAR=2001
DGENRE=Latin
TTITLE0=Amor A La Mexicana
TTITLE1=Piel Morena
TTITLE2=Rosalinda
TTITLE3=Quiero Hacerte El Amor
TTITLE4=Arrasando
TTITLE5=Cuco Peña
TTITLE6=Por Amor
TTITLE7=Entre El Mar Y Una Estrella
TTITLE8=Maria La Del Barrio
TTITLE9=Noches Sin Luna
TTITLE10=La Revancha
TTITLE11=Gracias A Dios
TTITLE12=Amor A La Mexicana (Emilio Mix)
TTITLE13=Piel Morena (Emilio Mix)
EXTD=
EXTT0=
EXTT1=
EXTT2=
EXTT3=
EXTT4=
EXTT5=
EXTT6=
EXTT7=
EXTT8=
EXTT9=
EXTT10=
EXTT11=
EXTT12=
EXTT13=
PLAYORDER=
